<svg width="104" height="104" viewBox="0 0 104 104" fill="none" xmlns="http://www.w3.org/2000/svg">
<path d="M60.4182 17.4661C58.8302 16.6923 56.9364 16.8937 55.5474 17.9828L40.7443 29.5838C39.936 29.348 39.0875 29.2141 38.2034 29.2141H23.0175C18.0377 29.2141 14 33.2529 14 38.2316V64.5326C14 69.5112 18.0377 73.5477 23.0175 73.5477H38.2034C38.9619 73.5477 39.6931 73.4434 40.3947 73.2704L55.5474 85.1428C56.377 85.7922 57.3843 86.1264 58.3964 86.1264C59.085 86.1264 59.7771 85.9723 60.4182 85.6583C62.0062 84.8868 63.0148 83.2739 63.0148 81.5057V21.6176C63.0148 19.8494 62.0062 18.2388 60.4182 17.4661Z" fill="black"/>
<path d="M90.2426 54.6678H75.8104C74.1856 54.6678 72.8701 53.3523 72.8701 51.7264C72.8701 50.1016 74.1856 48.7849 75.8104 48.7849H90.2438C91.8673 48.7849 93.184 50.1016 93.184 51.7264C93.184 53.3523 91.8673 54.6678 90.2426 54.6678Z" fill="black"/>
<path d="M90.1999 26.8261L77.6994 34.0434C76.2915 34.8564 74.4937 34.374 73.6807 32.9673C72.8677 31.5594 73.3501 29.7616 74.7556 28.9474L87.2561 21.7313C88.664 20.9184 90.4618 21.4007 91.2748 22.8074C92.0866 24.2165 91.6078 26.0143 90.1999 26.8261Z" fill="black"/>
<path d="M90.5827 76.5057L78.0834 69.2884C76.6755 68.4743 74.8777 68.9578 74.0635 70.3645C73.2517 71.7724 73.734 73.569 75.1396 74.3844L87.6401 81.6005C89.048 82.4147 90.8458 81.9311 91.6588 80.5256C92.4717 79.1153 91.9906 77.3163 90.5827 76.5057Z" fill="black"/>
</svg>
