<svg width="104" height="104" viewBox="0 0 104 104" fill="none" xmlns="http://www.w3.org/2000/svg">
<path fill-rule="evenodd" clip-rule="evenodd" d="M16 8C11.5817 8 8 11.5817 8 16V88C8 92.4183 11.5817 96 16 96H88C92.4183 96 96 92.4183 96 88V16C96 11.5817 92.4183 8 88 8H16ZM22.6678 59.3324C22.6678 61.3564 24.3068 62.999 26.3344 62.999H35.8164L23.742 75.0734C22.3084 76.507 22.3084 78.8244 23.742 80.258C25.1756 81.6916 27.493 81.6916 28.9266 80.258L41.001 68.1836V77.6656C41.001 79.6896 42.64 81.3322 44.6676 81.3322C46.6952 81.3322 48.3342 79.6896 48.3342 77.6656V59.3324C48.3342 58.8558 48.2352 58.3792 48.0518 57.9318C47.6816 57.0336 46.9666 56.3186 46.0682 55.9482C45.621 55.7648 45.1442 55.6658 44.6676 55.6658H26.3344C24.3068 55.6658 22.6678 57.3084 22.6678 59.3324ZM55 26.6668C55 24.6428 56.639 23.0002 58.6666 23.0002C60.6942 23.0002 62.3332 24.6428 62.3332 26.6668V36.1488L74.4076 24.0744C75.1226 23.3594 76.0612 23 77 23C77.9386 23 78.8774 23.3594 79.5924 24.0744C81.026 25.508 81.026 27.8254 79.5924 29.259L67.518 41.3334H77C79.0276 41.3334 80.6666 42.976 80.6666 45C80.6666 47.024 79.0276 48.6666 77 48.6666H58.6666C58.19 48.6666 57.7132 48.5676 57.266 48.3842C56.3676 48.0138 55.6526 47.2988 55.2824 46.4006C55.0954 45.9532 55 45.4766 55 45V26.6668Z" fill="black"/>
</svg>
